<?xml version="1.0" encoding="utf-8"?>
<!-- Generator: Adobe Illustrator 24.1.2, SVG Export Plug-In . SVG Version: 6.00 Build 0)  -->
<svg version="1.1" id="Layer_1" xmlns="http://www.w3.org/2000/svg" xmlns:xlink="http://www.w3.org/1999/xlink" x="0px" y="0px"
	 viewBox="0 0 409.7 169.7" style="enable-background:new 0 0 409.7 169.7;" xml:space="preserve">
<style type="text/css">
	.st0{fill:none;stroke:#000000;stroke-width:0.4503;stroke-miterlimit:4;}
	.st1{fill:#FFFFFF;stroke:#000000;stroke-width:1.4925;stroke-linecap:round;stroke-linejoin:round;stroke-miterlimit:4;}
	.st2{stroke:#FFFFFF;stroke-width:0.6446;stroke-linecap:round;stroke-linejoin:round;stroke-miterlimit:4;}
</style>
<path d="M330.1,25.9l-1.5-0.6l-8.4-3.3c-14.1-5.6-23.6-8.7-39.3-11c-13.7-2-21.2,0.3-26.7,2c-0.8,0.3-1.6,0.5-2.4,0.7
	c-5.6,1.5-11.8,7.8-12.1,8.1l0.7,0.7c0.1-0.1,6.3-6.4,11.6-7.8c0.8-0.2,1.6-0.5,2.4-0.7c5.4-1.7,12.8-4,26.2-1.9
	c15.6,2.3,25.2,5.2,39.2,10.8c4.1,1.6,6.6,2.6,9.7,3.8l0.5,0.1c0.8,0.3,0.4,0.6,0.6,0.1C330.9,26.3,330.5,26.1,330.1,25.9
	L330.1,25.9z"/>
<path class="st0" d="M264,11.3c0,0,15.4-5.1,31-4.1s78.3,8.6,93.2,13.7"/>
<path class="st0" d="M266.4,10.8c0,0,13.7-5.1,42.6-3.6c28.9,1.5,84.5,13.4,84.5,13.4"/>
<path class="st0" d="M276.7,8.1c0,0,27.2-0.9,41.9,0.8c14.7,1.7,51.5,6.9,54.8,7c3.3,0.1,17.5,1.1,17.5,1.1"/>
<path class="st0" d="M385.8,17.6c0,0-29.1-3.1-36.3-3.5c-7.2-0.4-30.7-3.2-47.7-4.1c-17-0.9-32.5,2.7-32.5,2.7s36.2,12.4,55.3,20.1
	s56.2,25,64.8,26.8c8.6,1.8,15,4.4,15,4.4s-52.7-19.4-66-26.4c-13.3-7-32.6-13.4-50.3-18.7c-17.8-5.3-29.6-5-31.5-4.9"/>
<path class="st0" d="M258.4,15.4c0,0,21.6,3.2,33.8,6.5c12.2,3.2,43,14.9,54.8,20.5c11.8,5.6,31.3,13.9,38.7,16.2
	c7.5,2.2,14.4,4.9,14.4,4.9"/>
<path class="st0" d="M265.2,15.5c0,0,8.8,1.4,17.8,3.2c8.9,1.9,26.5,8.3,35.8,11.3c9.3,3,50.9,21.8,53.7,22.7
	c2.8,0.9,22.5,8.1,25.1,9.4c2.6,1.3,4.2,1.8,4.2,1.8"/>
<path class="st0" d="M383.8,15.1c0,0-29.1-3.1-36.3-3.5c-7.2-0.4-30.7-3.2-47.7-4.1s-32.5,2.7-32.5,2.7s36.2,12.4,55.3,20.1
	c19.2,7.7,56.2,25,64.8,26.8s15,4.4,15,4.4s-52.7-19.4-66-26.4c-13.3-7-32.6-13.4-50.3-18.7c-17.8-5.3-29.6-5-31.5-4.9"/>
<path class="st0" d="M256.4,16.5c0,0,21.6,3.2,33.8,6.5c12.2,3.3,43,14.9,54.8,20.5c11.8,5.6,31.3,13.9,38.7,16.2
	c7.5,2.2,14.4,4.9,14.4,4.9"/>
<path class="st0" d="M263.3,14.8c0,0,8.8,1.4,17.8,3.2c8.9,1.9,26.5,8.3,35.8,11.3c9.3,3,50.9,21.8,53.7,22.7
	c2.8,0.9,22.5,8.1,25.1,9.4c2.6,1.3,4.2,1.8,4.2,1.8"/>
<path class="st0" d="M406.6,51.3c0,0-15.3,1.4-47.5-10.2c-32.3-11.6-49.5-16-53.2-16.9c-3.8-1-44.8-11.3-44.8-11.3"/>
<path class="st0" d="M409.6,43.5c0,0-30.5-4-58.7-14.6c-28.2-10.7-50-19.3-62.3-20.4c-12.4-1-30.4,1.8-30.4,1.8"/>
<path class="st0" d="M407.7,43.3c0,0-36.3-9.4-57.8-17.4s-41.2-13.5-49.3-15.8C292.5,7.8,277,7.7,277,7.7"/>
<path class="st0" d="M409,43.3c0,0-30.5-4-58.7-14.6C322.1,18,300.3,9.3,288,8.3c-12.4-1-30.4,1.8-30.4,1.8"/>
<path class="st0" d="M407.1,43.2c0,0-36.3-9.4-57.8-17.4c-21.5-8-41.2-13.5-49.3-15.8c-8.1-2.3-23.6-2.4-23.6-2.4"/>
<path class="st0" d="M400.1,43.5c0,0-24.7-9.7-44.8-16c-20.1-6.3-41-12.5-41-12.5s-8.1-2-20.6-3.8c-12.5-1.8-25.5-2.9-25.5-2.9"/>
<path class="st0" d="M399.1,44c0,0-24.7-9.7-44.8-16c-20.1-6.3-41-12.5-41-12.5s-8.1-2-20.6-3.8c-12.5-1.8-25.5-2.9-25.5-2.9"/>
<path d="M336.4,26.2c0,0-2.4-2.5-4-2.2c-1.5,0.3-2.9,1.4-2.9,1.4s1.2,2,3.3,1.7C335.1,26.9,336.4,26.2,336.4,26.2L336.4,26.2z"/>
<path d="M330.8,31.4c0,0,0-3.5-1.2-4.4c-1.3-0.9-3.1-1.1-3.1-1.1s-0.6,2.2,1.2,3.6C329.3,30.9,330.7,31.4,330.8,31.4L330.8,31.4z"/>
<path d="M326,29.1c0,0,0-3.5-1.2-4.4c-1.3-0.9-3.1-1.1-3.1-1.1s-0.6,2.2,1.2,3.6C324.6,28.6,326,29.1,326,29.1L326,29.1z"/>
<path d="M320.8,27.5c0,0,0-3.5-1.2-4.4s-3.1-1.1-3.1-1.1s-0.6,2.2,1.2,3.6C319.4,27,320.8,27.5,320.8,27.5L320.8,27.5z"/>
<path d="M316.2,25.9c0,0,0-3.5-1.2-4.4c-1.3-0.9-3.1-1.1-3.1-1.1s-0.6,2.2,1.2,3.6C314.7,25.3,316.2,25.9,316.2,25.9L316.2,25.9z"/>
<path d="M311.3,24.2c0,0,0-3.5-1.2-4.4s-3.1-1.1-3.1-1.1s-0.6,2.2,1.2,3.6C309.9,23.7,311.3,24.2,311.3,24.2L311.3,24.2z"/>
<path d="M305.8,22.6c0,0,0-3.5-1.2-4.4c-1.3-0.9-3.1-1.1-3.1-1.1s-0.6,2.2,1.2,3.6C304.4,22.1,305.8,22.6,305.8,22.6L305.8,22.6z"/>
<path d="M300.4,21.5c0,0,0-3.5-1.2-4.4c-1.3-0.9-3.1-1.1-3.1-1.1s-0.6,2.2,1.2,3.6C299,20.9,300.4,21.5,300.4,21.5L300.4,21.5z"/>
<path d="M294.6,19.7c0,0,0-3.5-1.2-4.4s-3.1-1.1-3.1-1.1s-0.6,2.2,1.2,3.6C293.2,19.2,294.6,19.7,294.6,19.7L294.6,19.7z"/>
<path d="M289.1,18.2c0,0,0-3.5-1.2-4.4c-1.3-0.9-3.1-1.1-3.1-1.1s-0.6,2.2,1.2,3.6C287.7,17.6,289.1,18.2,289.1,18.2L289.1,18.2z"/>
<path d="M283.9,17.5c0,0,0-3.5-1.2-4.4c-1.3-0.9-3.1-1.1-3.1-1.1s-0.6,2.2,1.2,3.6C282.5,17,283.9,17.5,283.9,17.5L283.9,17.5z"/>
<path d="M278.5,16.7c0,0-0.3-3.4-1.7-4.2c-1.3-0.8-3.2-0.7-3.2-0.7s-0.3,2.3,1.5,3.4C277,16.3,278.5,16.7,278.5,16.7L278.5,16.7z"/>
<path d="M268.5,17.2c0,0-0.3-3.4-1.7-4.2c-1.4-0.8-3.2-0.7-3.2-0.7s-0.3,2.3,1.5,3.4C267,16.8,268.4,17.2,268.5,17.2L268.5,17.2z"/>
<path d="M263.8,18c0,0-0.3-3.4-1.7-4.2c-1.3-0.8-3.2-0.7-3.2-0.7s-0.3,2.3,1.5,3.4C262.3,17.6,263.8,18,263.8,18L263.8,18z"/>
<path d="M273.6,16.9c0,0-0.3-3.4-1.7-4.2c-1.3-0.8-3.2-0.7-3.2-0.7s-0.3,2.3,1.5,3.4C272.1,16.5,273.6,16.9,273.6,16.9L273.6,16.9z"
	/>
<path d="M259.4,18.2c0,0-0.3-3.4-1.7-4.2c-1.3-0.8-3.2-0.7-3.2-0.7s-0.3,2.3,1.5,3.4C258,17.9,259.4,18.2,259.4,18.2z"/>
<path d="M331.9,23.2c0,0-2.8-2-4.3-1.5c-1.5,0.5-2.7,1.9-2.7,1.9s1.5,1.8,3.6,1.1C330.7,24.1,331.9,23.2,331.9,23.2L331.9,23.2z"/>
<path d="M327.1,21.2c0,0-2.8-2-4.3-1.5c-1.5,0.5-2.7,1.9-2.7,1.9s1.5,1.8,3.6,1.1C325.9,22.1,327.1,21.2,327.1,21.2L327.1,21.2z"/>
<path d="M322.1,19.2c0,0-2.8-2-4.3-1.5c-1.5,0.5-2.7,1.9-2.7,1.9s1.5,1.8,3.6,1.1C320.8,20,322.1,19.2,322.1,19.2L322.1,19.2z"/>
<path d="M317.1,17.2c0,0-2.8-2-4.3-1.5c-1.5,0.5-2.7,1.9-2.7,1.9s1.5,1.8,3.6,1.1C315.8,18,317.1,17.2,317.1,17.2L317.1,17.2z"/>
<path d="M312.1,15.1c0,0-2.8-2-4.3-1.5c-1.5,0.5-2.7,1.9-2.7,1.9s1.5,1.8,3.6,1.1C310.8,16,312.1,15.1,312.1,15.1L312.1,15.1z"/>
<path d="M306.7,13.5c0,0-2.8-2-4.3-1.5c-1.5,0.5-2.7,1.9-2.7,1.9s1.5,1.8,3.6,1.1C305.4,14.3,306.7,13.5,306.7,13.5L306.7,13.5z"/>
<path d="M301.3,12.1c0,0-2.8-2-4.3-1.5c-1.5,0.5-2.7,1.9-2.7,1.9s1.5,1.8,3.6,1.1C300.1,12.9,301.3,12.1,301.3,12.1L301.3,12.1z"/>
<path d="M296,10.7c0,0-2.8-2-4.3-1.5c-1.5,0.5-2.7,1.9-2.7,1.9s1.5,1.8,3.6,1.1C294.7,11.5,296,10.7,296,10.7L296,10.7z"/>
<path d="M290.4,9.7c0,0-2.8-2-4.3-1.5c-1.5,0.5-2.7,1.9-2.7,1.9s1.5,1.8,3.6,1.1C289.2,10.5,290.4,9.7,290.4,9.7L290.4,9.7z"/>
<path d="M284.4,8.5c0,0-2.9-1.8-4.4-1.2s-2.5,2.1-2.5,2.1s1.6,1.6,3.6,0.8C283.2,9.5,284.4,8.5,284.4,8.5L284.4,8.5z"/>
<path d="M278.1,7.2c0,0-3.3-0.9-4.5,0.1s-1.8,2.8-1.8,2.8s2,1.1,3.7-0.3C277.3,8.5,278.1,7.2,278.1,7.2L278.1,7.2z"/>
<path d="M272.7,7.5c0,0-3.4-0.9-4.5,0.1c-1.2,1-1.8,2.8-1.8,2.8s2,1.1,3.7-0.3C271.8,8.8,272.7,7.5,272.7,7.5L272.7,7.5z"/>
<path d="M267.2,7.8c0,0-3.4-0.9-4.5,0.1c-1.2,1-1.8,2.8-1.8,2.8s2,1.1,3.7-0.3C266.3,9.1,267.2,7.8,267.2,7.8L267.2,7.8z"/>
<path d="M261.1,9c0,0-3.4-0.8-4.5,0.3c-1.1,1-1.7,2.8-1.7,2.8s2,1,3.7-0.4C260.3,10.3,261.1,9,261.1,9L261.1,9z"/>
<path d="M79.6,25.9l1.5-0.6l8.4-3.3c14.1-5.6,23.6-8.7,39.3-11c13.7-2,21.2,0.3,26.7,2c0.8,0.3,1.6,0.5,2.4,0.7
	c5.6,1.5,11.8,7.8,12.1,8.1l-0.7,0.7c-0.1-0.1-6.3-6.4-11.6-7.8c-0.8-0.2-1.6-0.5-2.4-0.7c-5.4-1.7-12.8-4-26.2-1.9
	c-15.6,2.3-25.2,5.2-39.2,10.8c-4.1,1.6-6.6,2.6-9.7,3.8l-0.5,0.1c-0.8,0.3-0.4,0.6-0.6,0.1C78.8,26.3,79.2,26.1,79.6,25.9
	L79.6,25.9z"/>
<path class="st0" d="M145.7,11.3c0,0-15.4-5.1-31-4.1s-78.3,8.6-93.2,13.7"/>
<path class="st0" d="M143.3,10.8c0,0-13.7-5.1-42.6-3.6c-29,1.5-84.5,13.4-84.5,13.4"/>
<path class="st0" d="M133,8.1c0,0-27.2-0.9-41.9,0.8c-14.7,1.7-51.5,6.9-54.8,7C32.9,16,18.7,17,18.7,17"/>
<path class="st0" d="M23.9,17.6c0,0,29.1-3.1,36.3-3.5c7.2-0.4,30.7-3.2,47.7-4.1s32.5,2.7,32.5,2.7s-36.2,12.4-55.3,20.1
	s-56.2,25-64.8,26.8S5.3,64,5.3,64s52.7-19.4,66-26.4s32.6-13.4,50.3-18.7c17.8-5.3,29.6-5,31.5-4.9"/>
<path class="st0" d="M151.3,15.4c0,0-21.6,3.2-33.8,6.5c-12.2,3.2-43,14.9-54.8,20.5S31.5,56.4,24,58.6c-7.5,2.2-14.4,4.9-14.4,4.9"
	/>
<path class="st0" d="M144.5,15.5c0,0-8.8,1.4-17.8,3.2c-8.9,1.9-26.5,8.3-35.8,11.3C81.6,33,40,51.8,37.2,52.7
	c-2.8,0.9-22.5,8.1-25.1,9.4S8,63.9,8,63.9"/>
<path class="st0" d="M25.9,15.1c0,0,29.1-3.1,36.3-3.5c7.2-0.4,30.7-3.2,47.7-4.1s32.5,2.7,32.5,2.7S106.2,22.7,87,30.3
	c-19.2,7.7-56.2,25-64.8,26.8s-15,4.4-15,4.4s52.7-19.4,66-26.4c13.3-7,32.6-13.4,50.3-18.7c17.8-5.3,29.6-5,31.5-4.9"/>
<path class="st0" d="M153.3,16.5c0,0-21.6,3.2-33.8,6.5s-43,14.9-54.8,20.5S33.4,57.5,25.9,59.7c-7.5,2.2-14.4,4.9-14.4,4.9"/>
<path class="st0" d="M146.4,14.8c0,0-8.8,1.4-17.8,3.2c-8.9,1.9-26.5,8.3-35.8,11.3S42,51.2,39.2,52c-2.8,0.9-22.5,8.1-25.1,9.4
	c-2.6,1.3-4.2,1.8-4.2,1.8"/>
<path class="st0" d="M3.1,51.3c0,0,15.3,1.4,47.5-10.2c32.3-11.6,49.5-16,53.2-16.9c3.8-1,44.8-11.3,44.8-11.3"/>
<path class="st0" d="M0,43.5c0,0,30.5-4,58.7-14.6c28.2-10.7,50-19.3,62.3-20.4c12.4-1,30.4,1.8,30.4,1.8"/>
<path class="st0" d="M1.9,43.3c0,0,36.3-9.4,57.8-17.4s41.2-13.5,49.3-15.8c8.1-2.3,23.6-2.4,23.6-2.4"/>
<path class="st0" d="M0.7,43.3c0,0,30.5-4,58.7-14.6c28.2-10.7,50-19.3,62.3-20.4c12.4-1,30.3,1.8,30.3,1.8"/>
<path class="st0" d="M2.6,43.2c0,0,36.3-9.4,57.8-17.4c21.5-8,41.2-13.5,49.3-15.8c8.1-2.3,23.6-2.4,23.6-2.4"/>
<path class="st0" d="M9.6,43.5c0,0,24.7-9.7,44.8-16c20.1-6.3,41-12.5,41-12.5s8.1-2,20.6-3.8s25.5-2.9,25.5-2.9"/>
<path class="st0" d="M10.6,44c0,0,24.7-9.7,44.8-16c20.1-6.3,41-12.5,41-12.5s8.1-2,20.6-3.8c12.5-1.8,25.5-2.9,25.5-2.9"/>
<path d="M73.2,26.2c0,0,2.4-2.5,4-2.2c1.5,0.3,2.9,1.4,2.9,1.4s-1.2,2-3.3,1.7S73.2,26.2,73.2,26.2z"/>
<path d="M78.9,31.4c0,0,0-3.5,1.2-4.4c1.3-0.9,3.1-1.1,3.1-1.1s0.6,2.2-1.2,3.6C80.3,30.9,78.9,31.4,78.9,31.4z"/>
<path d="M83.6,29.1c0,0,0-3.5,1.2-4.4c1.3-0.9,3.1-1.1,3.1-1.1s0.6,2.2-1.2,3.6C85,28.6,83.6,29.1,83.6,29.1z"/>
<path d="M88.9,27.5c0,0,0-3.5,1.2-4.4s3.1-1.1,3.1-1.1s0.6,2.2-1.2,3.6C90.3,27,88.9,27.5,88.9,27.5z"/>
<path d="M93.5,25.9c0,0,0-3.5,1.2-4.4c1.3-0.9,3.1-1.1,3.1-1.1s0.6,2.2-1.2,3.6C94.9,25.3,93.5,25.9,93.5,25.9z"/>
<path d="M98.4,24.2c0,0,0-3.5,1.2-4.4s3.1-1.1,3.1-1.1s0.6,2.2-1.2,3.6C99.8,23.7,98.4,24.2,98.4,24.2L98.4,24.2z"/>
<path d="M103.9,22.6c0,0,0-3.5,1.2-4.4c1.3-0.9,3.1-1.1,3.1-1.1s0.6,2.2-1.2,3.6C105.3,22.1,103.9,22.6,103.9,22.6L103.9,22.6z"/>
<path d="M109.3,21.5c0,0,0-3.5,1.2-4.4c1.3-0.9,3.1-1.1,3.1-1.1s0.6,2.2-1.2,3.6C110.7,20.9,109.2,21.5,109.3,21.5L109.3,21.5z"/>
<path d="M115,19.7c0,0,0-3.5,1.2-4.4s3.1-1.1,3.1-1.1s0.6,2.2-1.2,3.6C116.5,19.2,115,19.7,115,19.7L115,19.7z"/>
<path d="M120.6,18.2c0,0,0-3.5,1.2-4.4c1.3-0.9,3.1-1.1,3.1-1.1s0.6,2.2-1.2,3.6C122,17.6,120.6,18.2,120.6,18.2L120.6,18.2z"/>
<path d="M125.8,17.5c0,0,0-3.5,1.2-4.4c1.3-0.9,3.1-1.1,3.1-1.1s0.6,2.2-1.2,3.6C127.2,17,125.8,17.5,125.8,17.5L125.8,17.5z"/>
<path d="M131.2,16.7c0,0,0.3-3.4,1.7-4.2c1.3-0.8,3.2-0.7,3.2-0.7s0.3,2.3-1.5,3.4C132.7,16.3,131.2,16.7,131.2,16.7L131.2,16.7z"/>
<path d="M141.2,17.2c0,0,0.3-3.4,1.7-4.2c1.4-0.8,3.2-0.7,3.2-0.7s0.3,2.3-1.5,3.4C142.7,16.8,141.2,17.2,141.2,17.2L141.2,17.2z"/>
<path d="M145.9,18c0,0,0.3-3.4,1.7-4.2c1.3-0.8,3.2-0.7,3.2-0.7s0.3,2.3-1.5,3.4C147.4,17.6,145.9,18,145.9,18L145.9,18z"/>
<path d="M136.1,16.9c0,0,0.3-3.4,1.7-4.2c1.3-0.8,3.2-0.7,3.2-0.7s0.3,2.3-1.5,3.4C137.6,16.5,136.1,16.9,136.1,16.9L136.1,16.9z"/>
<path d="M150.3,18.2c0,0,0.3-3.4,1.7-4.2c1.3-0.8,3.2-0.7,3.2-0.7s0.3,2.3-1.5,3.4S150.3,18.2,150.3,18.2z"/>
<path d="M77.7,23.2c0,0,2.8-2,4.3-1.5c1.5,0.5,2.7,1.9,2.7,1.9s-1.5,1.8-3.6,1.1C79,24.1,77.7,23.2,77.7,23.2z"/>
<path d="M82.6,21.2c0,0,2.8-2,4.3-1.5c1.5,0.5,2.7,1.9,2.7,1.9s-1.5,1.8-3.6,1.1C83.8,22.1,82.6,21.2,82.6,21.2z"/>
<path d="M87.6,19.2c0,0,2.8-2,4.3-1.5c1.5,0.5,2.7,1.9,2.7,1.9s-1.5,1.8-3.6,1.1C88.8,20,87.6,19.2,87.6,19.2z"/>
<path d="M92.6,17.2c0,0,2.8-2,4.3-1.5c1.5,0.5,2.7,1.9,2.7,1.9s-1.5,1.8-3.6,1.1C93.8,18,92.6,17.2,92.6,17.2z"/>
<path d="M97.6,15.1c0,0,2.8-2,4.3-1.5c1.5,0.5,2.7,1.9,2.7,1.9s-1.5,1.8-3.6,1.1S97.6,15.1,97.6,15.1L97.6,15.1z"/>
<path d="M103,13.5c0,0,2.8-2,4.3-1.5c1.5,0.5,2.7,1.9,2.7,1.9s-1.5,1.8-3.6,1.1C104.3,14.3,103,13.5,103,13.5L103,13.5z"/>
<path d="M108.4,12.1c0,0,2.8-2,4.3-1.5s2.7,1.9,2.7,1.9s-1.5,1.8-3.6,1.1C109.6,12.9,108.4,12.1,108.4,12.1L108.4,12.1z"/>
<path d="M113.7,10.7c0,0,2.8-2,4.3-1.5c1.5,0.5,2.7,1.9,2.7,1.9s-1.5,1.8-3.6,1.1C114.9,11.5,113.7,10.7,113.7,10.7L113.7,10.7z"/>
<path d="M119.3,9.7c0,0,2.8-2,4.3-1.5c1.5,0.5,2.7,1.9,2.7,1.9s-1.5,1.8-3.6,1.1C120.5,10.5,119.3,9.7,119.3,9.7L119.3,9.7z"/>
<path d="M125.2,8.5c0,0,3-1.8,4.4-1.2c1.4,0.6,2.5,2.1,2.5,2.1s-1.6,1.6-3.6,0.8C126.4,9.5,125.2,8.5,125.2,8.5L125.2,8.5z"/>
<path d="M131.5,7.2c0,0,3.3-0.9,4.5,0.1c1.2,1,1.8,2.8,1.8,2.8s-2,1.1-3.7-0.3C132.4,8.5,131.5,7.2,131.5,7.2L131.5,7.2z"/>
<path d="M137,7.5c0,0,3.4-0.9,4.5,0.1c1.2,1,1.8,2.8,1.8,2.8s-2,1.1-3.7-0.3C137.9,8.8,137,7.5,137,7.5z"/>
<path d="M142.5,7.8c0,0,3.4-0.9,4.5,0.1c1.2,1,1.8,2.8,1.8,2.8s-2,1.1-3.7-0.3C143.3,9.1,142.5,7.8,142.5,7.8L142.5,7.8z"/>
<path d="M148.6,9c0,0,3.4-0.8,4.5,0.3c1.1,1,1.7,2.8,1.7,2.8s-2,1-3.7-0.4C149.4,10.3,148.6,9,148.6,9L148.6,9z"/>
<path d="M80.9,61l1.3-1.1l7-5.7c11.8-9.6,19.9-15.4,34.1-22.4c12.4-6.1,20.3-6.2,26-6.2c0.9,0,1.7,0,2.5,0c5.8-0.2,13.7,3.9,14,4
	l-0.5,0.9c-0.1,0-8-4.1-13.5-3.9c-0.8,0-1.6,0-2.5,0c-5.6,0-13.4,0.1-25.6,6.1c-14.2,7-22.4,12.6-34.1,22.1
	c-3.4,2.8-5.6,4.4-8.1,6.6L81,61.7c-0.7,0.5-0.2,0.7-0.5,0.3C80.2,61.7,80.5,61.4,80.9,61L80.9,61z"/>
<path class="st0" d="M139.4,27.1c0,0-16.3-0.2-30.8,5.5s-72,31.9-84.7,41.3"/>
<path class="st0" d="M137,27.4c0,0-14.6-0.7-41.7,9.5C68.1,47,18.8,75.3,18.8,75.3"/>
<path class="st0" d="M126.4,28c0,0-26.2,7.4-39.7,13.5c-13.5,6.1-47,22.1-50.1,23.3c-3.1,1.1-16.3,6.4-16.3,6.4"/>
<path class="st0" d="M25.3,70c0,0,26.8-11.7,33.5-14.3c6.7-2.6,28.3-12.4,44.2-18.4s31.8-7.3,31.8-7.3s-30.7,22.8-46.6,35.9
	c-15.9,13.1-46,40.8-53.7,45.2c-7.7,4.4-12.9,8.8-12.9,8.8s44.3-34.5,54.9-45.2c10.6-10.7,27-22.7,42.3-33.1
	c15.3-10.5,26.7-13.8,28.6-14.2"/>
<path class="st0" d="M146,29.3c0,0-19.6,9.6-30.2,16.4S79.3,73,69.8,81.9s-25.6,22.8-32,27.1c-6.4,4.4-12.3,9-12.3,9"/>
<path class="st0" d="M139.5,31.5c0,0-8,4-16,8.5c-8,4.5-22.7,15.9-30.7,21.6S51,97.8,48.6,99.4c-2.4,1.7-19,14.5-21,16.6
	c-2.1,2.1-3.4,3-3.4,3"/>
<path class="st0" d="M26.4,67.1c0,0,26.8-11.8,33.5-14.3c6.7-2.6,28.3-12.4,44.2-18.4c15.9-6,31.8-7.2,31.8-7.2S105.2,49.9,89.3,63
	s-46,40.8-53.7,45.2c-7.7,4.4-12.9,8.8-12.9,8.8S67,82.5,77.6,71.8c10.6-10.7,27-22.7,42.3-33.1s26.7-13.8,28.6-14.2"/>
<path class="st0" d="M148.2,29.8c0,0-19.6,9.6-30.2,16.4S81.5,73.4,72,82.4s-25.6,22.8-32,27.1c-6.5,4.4-12.3,9-12.3,9"/>
<path class="st0" d="M141.2,30.2c0,0-8,4-16,8.5c-8,4.5-22.7,15.9-30.7,21.6S52.7,96.5,50.2,98.2c-2.4,1.7-19,14.5-21,16.6
	c-2.1,2.1-3.4,3-3.4,3"/>
<path class="st0" d="M15.6,108.4c0,0,15-3.3,42.2-24.1s42.3-30.2,45.6-32.2c3.3-2,39.3-24.3,39.3-24.3"/>
<path class="st0" d="M10.4,101.9c0,0,27.9-13,51.5-31.7s41.8-33.6,53.2-38.3c11.5-4.7,29.5-7.4,29.5-7.4"/>
<path class="st0" d="M12.1,101.2c0,0,31.7-20,49.8-34.1c18.1-14.2,35.2-25.3,42.2-30c7-4.6,21.7-9.5,21.7-9.5"/>
<path class="st0" d="M11,101.6c0,0,27.8-13,51.5-31.7s41.8-33.6,53.2-38.3c11.5-4.7,29.5-7.4,29.5-7.4"/>
<path class="st0" d="M12.7,100.8c0,0,31.7-20,49.8-34.1c18.1-14.2,35.2-25.3,42.2-30c7-4.6,21.7-9.5,21.7-9.5"/>
<path class="st0" d="M19.5,99c0,0,20.6-16.8,37.9-28.9s35.2-24.3,35.2-24.3s7.2-4.3,18.5-9.9s23.4-10.5,23.4-10.5"/>
<path class="st0" d="M20.6,99.2c0,0,20.6-16.8,37.8-28.9C75.6,58.2,93.7,46,93.7,46s7.2-4.3,18.5-9.9s23.4-10.5,23.4-10.5"/>
<path d="M74.9,63.3c0,0,1.6-3.1,3.1-3.3c1.5-0.2,3.2,0.5,3.2,0.5s-0.5,2.2-2.7,2.6C76.4,63.5,74.9,63.3,74.9,63.3z"/>
<path d="M81.9,66.5c0,0-1.1-3.3-0.2-4.5c0.9-1.2,2.6-2,2.6-2s1.2,1.9,0,3.7C83.1,65.6,81.9,66.5,81.9,66.5z"/>
<path d="M85.7,62.9c0,0-1.1-3.3-0.2-4.5c0.9-1.2,2.6-2,2.6-2s1.2,1.9,0,3.7C86.9,62,85.7,62.9,85.7,62.9z"/>
<path d="M90.2,59.8c0,0-1.1-3.3-0.2-4.5c0.9-1.2,2.6-2,2.6-2s1.2,1.9,0,3.7S90.2,59.8,90.2,59.8z"/>
<path d="M94.1,56.8c0,0-1.1-3.3-0.2-4.5c0.9-1.2,2.6-2,2.6-2s1.2,1.9,0,3.7C95.3,55.9,94.1,56.8,94.1,56.8z"/>
<path d="M98.3,53.8c0,0-1.1-3.3-0.2-4.5c0.9-1.3,2.6-2,2.6-2s1.2,1.9,0,3.7C99.4,52.9,98.2,53.8,98.3,53.8L98.3,53.8z"/>
<path d="M103,50.6c0,0-1.1-3.3-0.2-4.5c0.9-1.2,2.6-2,2.6-2s1.2,1.9,0,3.7C104.2,49.7,103,50.6,103,50.6L103,50.6z"/>
<path d="M107.8,47.8c0,0-1.1-3.3-0.2-4.5c0.9-1.2,2.6-2,2.6-2s1.2,1.9,0,3.7C109,46.9,107.8,47.8,107.8,47.8L107.8,47.8z"/>
<path d="M112.8,44.4c0,0-1.1-3.3-0.2-4.5s2.6-2,2.6-2s1.2,1.9,0,3.7C114,43.5,112.8,44.4,112.8,44.4z"/>
<path d="M117.6,41.3c0,0-1.1-3.3-0.2-4.5c0.9-1.2,2.6-2,2.6-2s1.2,1.9,0,3.7C118.7,40.3,117.6,41.3,117.6,41.3L117.6,41.3z"/>
<path d="M122.3,39.1c0,0-1.1-3.3-0.2-4.5c0.9-1.2,2.6-2,2.6-2s1.2,1.9,0,3.8C123.5,38.1,122.3,39.1,122.3,39.1L122.3,39.1z"/>
<path d="M127.2,36.7c0,0-0.7-3.4,0.3-4.5c1.1-1.1,2.8-1.7,2.8-1.7s1,2.1-0.4,3.7C128.5,35.9,127.2,36.7,127.2,36.7L127.2,36.7z"/>
<path d="M136.9,34.1c0,0-0.7-3.4,0.3-4.5c1.1-1.1,2.8-1.7,2.8-1.7s1,2.1-0.4,3.7C138.2,33.3,136.9,34.1,136.9,34.1L136.9,34.1z"/>
<path d="M141.7,33.4c0,0-0.7-3.4,0.3-4.5c1.1-1.1,2.8-1.7,2.8-1.7s1,2.1-0.4,3.7C142.9,32.7,141.7,33.4,141.7,33.4L141.7,33.4z"/>
<path d="M132,35.3c0,0-0.7-3.4,0.3-4.5c1.1-1.1,2.8-1.7,2.8-1.7s1,2-0.4,3.7C133.3,34.5,132,35.3,132,35.3L132,35.3z"/>
<path d="M145.9,32.3c0,0-0.7-3.4,0.3-4.5c1-1.1,2.8-1.7,2.8-1.7s1,2.1-0.4,3.7C147.1,31.5,145.9,32.3,145.9,32.3L145.9,32.3z"/>
<path d="M78.3,59.1c0,0,2.1-2.8,3.6-2.8s3.1,1,3.1,1s-0.9,2.1-3.1,2.1S78.3,59.1,78.3,59.1z"/>
<path d="M82.3,55.7c0,0,2.1-2.8,3.6-2.8s3.1,1,3.1,1s-0.9,2.1-3.1,2.2C83.7,56.1,82.3,55.7,82.3,55.7z"/>
<path d="M86.4,52.2c0,0,2.1-2.8,3.6-2.7c1.5,0,3.1,1,3.1,1s-0.9,2.1-3.1,2.2C87.9,52.7,86.4,52.2,86.4,52.2z"/>
<path d="M90.6,48.8c0,0,2.1-2.8,3.6-2.8c1.5,0,3.1,1,3.1,1s-0.9,2.1-3.1,2.2C92,49.2,90.6,48.8,90.6,48.8z"/>
<path d="M94.7,45.4c0,0,2.1-2.8,3.6-2.8s3.1,1,3.1,1s-0.9,2.1-3.1,2.1C96.2,45.8,94.7,45.4,94.7,45.4L94.7,45.4z"/>
<path d="M99.4,42.1c0,0,2.1-2.8,3.6-2.8c1.5,0,3.1,1,3.1,1s-0.9,2.1-3.1,2.1C100.8,42.5,99.4,42.1,99.4,42.1L99.4,42.1z"/>
<path d="M104.1,39.2c0,0,2.1-2.8,3.6-2.8s3.1,1,3.1,1s-0.9,2.1-3.1,2.2C105.5,39.6,104.1,39.2,104.1,39.2L104.1,39.2z"/>
<path d="M108.7,36.2c0,0,2.1-2.8,3.6-2.8c1.6,0,3.1,1,3.1,1s-0.9,2.1-3.1,2.1C110.2,36.7,108.7,36.2,108.7,36.2L108.7,36.2z"/>
<path d="M113.7,33.6c0,0,2.1-2.8,3.6-2.8c1.5,0,3.1,1,3.1,1s-0.9,2.1-3.1,2.1C115.2,34,113.7,33.6,113.7,33.6L113.7,33.6z"/>
<path d="M119.1,30.7c0,0,2.3-2.6,3.8-2.5c1.5,0.1,3,1.3,3,1.3s-1,2-3.2,1.9S119.1,30.7,119.1,30.7L119.1,30.7z"/>
<path d="M124.7,27.5c0,0,2.9-1.8,4.4-1.3c1.4,0.6,2.5,2.1,2.5,2.1s-1.6,1.7-3.6,0.9C125.9,28.5,124.7,27.5,124.7,27.5L124.7,27.5z"
	/>
<path d="M130,26.1c0,0,2.9-1.9,4.4-1.3c1.4,0.6,2.5,2.1,2.5,2.1s-1.6,1.7-3.6,0.9C131.2,27.1,130,26.1,130,26.1L130,26.1z"/>
<path d="M135.3,24.8c0,0,2.9-1.9,4.4-1.3c1.4,0.6,2.5,2.1,2.5,2.1s-1.6,1.7-3.6,0.9C136.5,25.7,135.3,24.8,135.3,24.8L135.3,24.8z"
	/>
<path d="M141.5,24.1c0,0,3-1.8,4.4-1.1c1.4,0.6,2.5,2.2,2.5,2.2s-1.6,1.6-3.7,0.8C142.6,25,141.5,24.1,141.5,24.1L141.5,24.1z"/>
<path d="M100,93.8l0.8-1.4l4.5-7.8c7.7-13.1,13.3-21.4,24.2-32.9c9.5-10,16.9-12.8,22.3-14.9c0.8-0.3,1.6-0.6,2.3-0.9
	c5.3-2.2,14.1-1.1,14.5-1.1l-0.1,1c-0.1,0-8.9-1.1-14,1c-0.7,0.3-1.5,0.6-2.3,0.9c-5.3,2-12.5,4.7-21.9,14.6
	C119.4,63.9,113.6,72,106,85c-2.2,3.8-3.7,6.1-5.3,9l-0.4,0.4c-0.4,0.7,0.1,0.8-0.4,0.5C99.5,94.6,99.7,94.2,100,93.8L100,93.8z"/>
<path class="st0" d="M143,41.6c0,0-15.3,5.5-27,15.8s-56.4,55-65.1,68.2"/>
<path class="st0" d="M140.8,42.7c0,0-13.9,4.4-35.8,23.4c-21.9,19-58.3,62.6-58.3,62.6"/>
<path class="st0" d="M131.1,46.9c0,0-22,16-32.6,26.4s-36.4,37.1-38.9,39.3s-13.1,11.6-13.1,11.6"/>
<path class="st0" d="M50.9,121.5c0,0,21.1-20.3,26.4-25.1c5.4-4.7,22.2-21.4,35.1-32.6c12.8-11.2,27.3-17.9,27.3-17.9
	S118.8,78,108.5,95.8s-28.9,54.3-34.6,61c-5.7,6.8-9.1,12.7-9.1,12.7s29.6-47.7,35.7-61.4c6.2-13.7,17.4-30.6,28.1-45.7
	c10.7-15.1,20.2-22.2,21.9-23.3"/>
<path class="st0" d="M150,41.4c0,0-15,15.9-22.6,25.9c-7.6,10.1-24.7,38.2-30.6,49.9c-5.9,11.7-16.1,30.2-20.6,36.6
	c-4.5,6.4-8.4,12.7-8.4,12.7"/>
<path class="st0" d="M144.7,45.7c0,0-6.1,6.5-12,13.5c-5.9,7-15.8,22.8-21.3,30.9c-5.5,8.1-26.7,48.5-28.3,50.9
	c-1.7,2.4-12.7,20.2-14,22.9s-2.2,4-2.2,4"/>
<path class="st0" d="M51,118.4c0,0,21.1-20.3,26.4-25.1c5.4-4.8,22.2-21.4,35.1-32.6c12.8-11.2,27.3-17.9,27.3-17.9
	s-20.9,32.1-31.2,49.9c-10.4,17.8-28.9,54.3-34.6,61c-5.7,6.8-9.1,12.7-9.1,12.7s29.6-47.7,35.7-61.4c6.2-13.7,17.4-30.6,28.1-45.8
	S149,37.1,150.6,36"/>
<path class="st0" d="M152.2,41c0,0-15,15.9-22.6,25.9C122,77,104.9,105.2,99,116.9c-5.9,11.7-16,30.2-20.6,36.6
	c-4.5,6.4-8.4,12.7-8.4,12.7"/>
<path class="st0" d="M145.8,43.9c0,0-6.1,6.5-12,13.5c-5.9,7-15.8,22.8-21.3,30.9s-26.7,48.5-28.3,50.9c-1.7,2.4-12.7,20.2-14,22.9
	s-2.2,4-2.2,4"/>
<path class="st0" d="M55.2,160.9c0,0,12.9-8.3,31.2-37.3c18.3-29,29.2-43,31.5-46.1c2.4-3.1,28.4-36.5,28.4-36.5"/>
<path class="st0" d="M48.1,156.6c0,0,21.6-21.9,37.2-47.7s27.5-46,36.6-54.4s25.1-17.2,25.1-17.2"/>
<path class="st0" d="M49.5,155.3c0,0,22.8-29.7,34.8-49.3c12-19.6,24.2-36,29.2-42.8c5-6.8,17.1-16.4,17.1-16.4"/>
<path class="st0" d="M48.5,156.1c0,0,21.6-21.9,37.2-47.7s27.5-46,36.6-54.4c9.1-8.4,25.1-17.2,25.1-17.2"/>
<path class="st0" d="M49.9,154.8c0,0,22.8-29.7,34.8-49.3c12-19.6,24.2-36,29.2-42.8c5-6.8,17.1-16.5,17.1-16.5"/>
<path class="st0" d="M55.6,150.8c0,0,13.5-22.9,25.5-40.2s24.6-35.1,24.6-35.1s5.2-6.6,13.9-15.7s18.3-18,18.3-18"/>
<path class="st0" d="M56.7,150.5c0,0,13.5-22.9,25.4-40.2s24.6-35.1,24.6-35.1s5.2-6.6,13.9-15.7s18.3-18,18.3-18"/>
<path d="M95.1,98c0,0,0.4-3.4,1.8-4.2c1.4-0.7,3.2-0.7,3.2-0.7s0.3,2.3-1.6,3.4C96.6,97.6,95.1,98,95.1,98L95.1,98z"/>
<path d="M102.8,98.6c0,0-2.2-2.7-1.7-4.2c0.4-1.5,1.8-2.8,1.8-2.8s1.8,1.4,1.3,3.5C103.6,97.3,102.8,98.6,102.8,98.6L102.8,98.6z"/>
<path d="M105.1,93.9c0,0-2.2-2.7-1.7-4.2c0.4-1.5,1.8-2.8,1.8-2.8s1.8,1.4,1.3,3.5C105.9,92.6,105.1,93.9,105.1,93.9L105.1,93.9z"/>
<path d="M108.2,89.4c0,0-2.2-2.7-1.7-4.2c0.4-1.5,1.8-2.8,1.8-2.8s1.8,1.4,1.3,3.5C109,88.1,108.2,89.4,108.2,89.4L108.2,89.4z"/>
<path d="M110.9,85.2c0,0-2.2-2.7-1.7-4.2c0.4-1.5,1.8-2.8,1.8-2.8s1.8,1.4,1.3,3.5C111.7,83.9,110.9,85.2,110.9,85.2L110.9,85.2z"/>
<path d="M113.7,80.9c0,0-2.2-2.7-1.7-4.2c0.4-1.5,1.8-2.8,1.8-2.8s1.8,1.4,1.3,3.5C114.5,79.6,113.7,80.9,113.7,80.9z"/>
<path d="M117.1,76.3c0,0-2.2-2.7-1.7-4.2s1.8-2.8,1.8-2.8s1.8,1.4,1.3,3.5C117.9,75,117.1,76.3,117.1,76.3L117.1,76.3z"/>
<path d="M120.6,72c0,0-2.2-2.7-1.7-4.2c0.4-1.5,1.8-2.8,1.8-2.8s1.8,1.4,1.3,3.5C121.4,70.8,120.6,72,120.6,72L120.6,72z"/>
<path d="M124.1,67.1c0,0-2.2-2.7-1.7-4.2c0.4-1.5,1.8-2.8,1.8-2.8s1.8,1.4,1.3,3.5C124.9,65.8,124.1,67.1,124.1,67.1L124.1,67.1z"/>
<path d="M127.5,62.5c0,0-2.2-2.7-1.7-4.2c0.4-1.5,1.8-2.8,1.8-2.8s1.8,1.4,1.3,3.5C128.3,61.2,127.5,62.5,127.5,62.5z"/>
<path d="M131.2,58.8c0,0-2.2-2.7-1.7-4.2c0.4-1.5,1.8-2.8,1.8-2.8s1.8,1.4,1.3,3.5C132,57.5,131.2,58.8,131.2,58.8L131.2,58.8z"/>
<path d="M134.9,54.8c0,0-1.8-2.9-1.3-4.4s2.1-2.5,2.1-2.5s1.7,1.6,0.9,3.6C135.9,53.6,134.9,54.8,134.9,54.8L134.9,54.8z"/>
<path d="M143.1,49c0,0-1.9-2.9-1.3-4.4c0.6-1.4,2.1-2.5,2.1-2.5s1.7,1.6,0.9,3.6C144.1,47.8,143.1,49,143.1,49L143.1,49z"/>
<path d="M147.3,46.8c0,0-1.8-2.9-1.3-4.4c0.6-1.4,2.1-2.5,2.1-2.5s1.7,1.6,0.9,3.6C148.3,45.6,147.3,46.8,147.3,46.8L147.3,46.8z"/>
<path d="M138.9,51.9c0,0-1.8-2.9-1.3-4.4c0.6-1.4,2.1-2.5,2.1-2.5s1.7,1.6,0.9,3.6S138.9,51.9,138.9,51.9L138.9,51.9z"/>
<path d="M150.9,44.3c0,0-1.8-2.9-1.3-4.4c0.6-1.4,2.1-2.5,2.1-2.5s1.7,1.6,0.9,3.6C151.8,43.1,150.9,44.3,150.9,44.3L150.9,44.3z"/>
<path d="M96.8,92.8c0,0,1-3.3,2.4-3.8c1.5-0.5,3.3-0.1,3.3-0.1s-0.1,2.3-2.1,3.1C98.3,92.7,96.8,92.8,96.8,92.8L96.8,92.8z"/>
<path d="M99.4,88.3c0,0,1-3.3,2.4-3.8c1.5-0.5,3.3-0.1,3.3-0.1s-0.1,2.3-2.1,3.1C100.9,88.2,99.4,88.3,99.4,88.3L99.4,88.3z"/>
<path d="M102.1,83.6c0,0,1-3.3,2.4-3.8c1.5-0.5,3.3-0.1,3.3-0.1s-0.1,2.3-2.1,3.1C103.6,83.5,102.1,83.6,102.1,83.6L102.1,83.6z"/>
<path d="M104.8,78.9c0,0,1-3.3,2.4-3.8c1.5-0.5,3.3-0.1,3.3-0.1s-0.1,2.3-2.1,3.1C106.3,78.8,104.8,78.9,104.8,78.9z"/>
<path d="M107.5,74.3c0,0,1-3.3,2.4-3.8c1.5-0.5,3.3-0.1,3.3-0.1s-0.1,2.3-2.1,3.1C109,74.2,107.5,74.3,107.5,74.3L107.5,74.3z"/>
<path d="M110.7,69.6c0,0,1-3.3,2.4-3.8c1.5-0.5,3.3-0.1,3.3-0.1s-0.1,2.3-2.1,3.1C112.2,69.5,110.7,69.6,110.7,69.6L110.7,69.6z"/>
<path d="M114.1,65.2c0,0,1-3.3,2.4-3.8s3.3-0.1,3.3-0.1s-0.1,2.3-2.1,3.1C115.6,65.1,114.1,65.2,114.1,65.2L114.1,65.2z"/>
<path d="M117.5,60.8c0,0,1-3.3,2.4-3.8c1.5-0.5,3.3-0.1,3.3-0.1s-0.1,2.3-2.1,3.1C119,60.7,117.4,60.8,117.5,60.8L117.5,60.8z"/>
<path d="M121.2,56.6c0,0,1-3.3,2.4-3.8c1.5-0.5,3.3-0.1,3.3-0.1s-0.1,2.3-2.1,3.1C122.7,56.5,121.2,56.6,121.2,56.6L121.2,56.6z"/>
<path d="M125.2,52c0,0,1.2-3.2,2.7-3.6c1.5-0.4,3.3,0.1,3.3,0.1s-0.2,2.3-2.4,2.9C126.7,52,125.2,52,125.2,52L125.2,52z"/>
<path d="M129.4,47.1c0,0,2.1-2.7,3.6-2.7c1.5,0.1,3.1,1.1,3.1,1.1s-0.9,2.1-3.1,2.1C130.8,47.6,129.4,47.1,129.4,47.1L129.4,47.1z"
	/>
<path d="M133.9,44c0,0,2.1-2.8,3.7-2.7c1.5,0.1,3.1,1.1,3.1,1.1s-0.9,2.1-3.1,2.1C135.3,44.4,133.9,44,133.9,44L133.9,44z"/>
<path d="M138.4,40.8c0,0,2.1-2.8,3.7-2.7c1.5,0.1,3.1,1.1,3.1,1.1s-0.9,2.1-3.1,2.1C139.8,41.3,138.4,40.8,138.4,40.8L138.4,40.8z"
	/>
<path d="M143.9,38c0,0,2.2-2.7,3.7-2.6c1.5,0.1,3.1,1.2,3.1,1.2s-1,2.1-3.2,2C145.3,38.5,143.9,38,143.9,38z"/>
<path d="M309.4,93.8l-0.8-1.4l-4.5-7.8c-7.7-13.1-13.3-21.4-24.2-32.9c-9.5-10-16.9-12.8-22.3-14.9c-0.8-0.3-1.6-0.6-2.3-0.9
	c-5.3-2.2-14.1-1.1-14.5-1.1l0.1,1c0.1,0,8.9-1.1,14,1c0.7,0.3,1.5,0.6,2.3,0.9c5.3,2,12.5,4.7,21.9,14.6
	C290,63.9,295.7,72,303.4,85c2.2,3.8,3.7,6.1,5.3,9l0.4,0.4c0.4,0.7-0.1,0.8,0.4,0.5C309.9,94.6,309.6,94.2,309.4,93.8L309.4,93.8z"
	/>
<path class="st0" d="M266.3,41.6c0,0,15.3,5.5,27,15.8s56.4,55,65.1,68.2"/>
<path class="st0" d="M268.5,42.7c0,0,13.9,4.4,35.8,23.4c21.9,19,58.3,62.6,58.3,62.6"/>
<path class="st0" d="M278.3,46.9c0,0,22,16,32.6,26.4c10.5,10.4,36.4,37.1,38.9,39.3c2.6,2.1,13.1,11.6,13.1,11.6"/>
<path class="st0" d="M358.4,121.5c0,0-21.1-20.3-26.4-25.1c-5.4-4.7-22.2-21.4-35.1-32.6c-12.8-11.2-27.3-17.9-27.3-17.9
	s20.9,32.1,31.2,49.9s28.9,54.3,34.6,61c5.7,6.8,9.1,12.7,9.1,12.7s-29.6-47.7-35.7-61.4c-6.2-13.7-17.4-30.6-28.1-45.7
	c-10.7-15.1-20.2-22.2-21.9-23.3"/>
<path class="st0" d="M259.3,41.4c0,0,15,15.9,22.6,25.9c7.6,10.1,24.7,38.2,30.6,49.9c5.9,11.7,16.1,30.2,20.6,36.6
	c4.5,6.4,8.4,12.7,8.4,12.7"/>
<path class="st0" d="M264.7,45.7c0,0,6.1,6.5,12,13.5c5.9,7,15.8,22.8,21.3,30.9c5.5,8.1,26.7,48.5,28.3,50.9
	c1.7,2.4,12.7,20.2,14,22.9s2.2,4,2.2,4"/>
<path class="st0" d="M358.4,118.4c0,0-21.1-20.3-26.4-25.1c-5.4-4.7-22.2-21.4-35.1-32.6c-12.8-11.2-27.3-17.8-27.3-17.8
	s20.9,32.1,31.2,49.9c10.4,17.8,28.9,54.3,34.6,61s9.1,12.7,9.1,12.7s-29.6-47.7-35.7-61.4c-6.2-13.7-17.4-30.6-28.1-45.8
	S260.4,37.1,258.8,36"/>
<path class="st0" d="M257.1,41c0,0,15,15.9,22.6,25.9c7.6,10.1,24.7,38.2,30.6,49.9s16,30.2,20.6,36.6c4.5,6.4,8.4,12.7,8.4,12.7"/>
<path class="st0" d="M263.6,43.9c0,0,6.1,6.5,12,13.5c5.9,7,15.8,22.8,21.3,30.9c5.5,8.1,26.7,48.5,28.3,50.9
	c1.7,2.4,12.7,20.2,14,22.9c1.2,2.7,2.2,4,2.2,4"/>
<path class="st0" d="M354.1,160.9c0,0-12.9-8.3-31.2-37.3c-18.3-29-29.2-43-31.5-46.1C289,74.5,263,41.1,263,41.1"/>
<path class="st0" d="M361.3,156.6c0,0-21.6-21.9-37.2-47.7s-27.5-46-36.6-54.4c-9.1-8.4-25.1-17.2-25.1-17.2"/>
<path class="st0" d="M359.9,155.3c0,0-22.8-29.7-34.8-49.3s-24.2-36-29.2-42.8c-5-6.8-17.1-16.4-17.1-16.4"/>
<path class="st0" d="M360.9,156.1c0,0-21.6-21.9-37.2-47.7S296.1,62.5,287,54c-9.1-8.4-25.1-17.2-25.1-17.2"/>
<path class="st0" d="M359.5,154.8c0,0-22.8-29.7-34.8-49.3c-12-19.6-24.2-36-29.2-42.8c-5-6.8-17.1-16.5-17.1-16.5"/>
<path class="st0" d="M353.7,150.8c0,0-13.5-22.9-25.5-40.2c-11.9-17.3-24.6-35.1-24.6-35.1s-5.2-6.6-13.9-15.7s-18.3-18-18.3-18"/>
<path class="st0" d="M352.7,150.5c0,0-13.5-22.9-25.4-40.2c-11.9-17.3-24.6-35.1-24.6-35.1s-5.2-6.6-13.9-15.7s-18.3-18-18.3-18"/>
<path d="M314.2,98c0,0-0.4-3.4-1.8-4.2c-1.4-0.7-3.2-0.7-3.2-0.7s-0.3,2.3,1.6,3.4C312.7,97.6,314.2,98,314.2,98L314.2,98z"/>
<path d="M306.5,98.6c0,0,2.2-2.7,1.7-4.2c-0.4-1.5-1.8-2.8-1.8-2.8s-1.8,1.4-1.3,3.5C305.7,97.3,306.5,98.6,306.5,98.6L306.5,98.6z"
	/>
<path d="M304.2,93.9c0,0,2.2-2.7,1.7-4.2s-1.8-2.8-1.8-2.8s-1.8,1.4-1.3,3.5C303.4,92.6,304.2,93.9,304.2,93.9L304.2,93.9z"/>
<path d="M301.1,89.4c0,0,2.2-2.7,1.7-4.2c-0.4-1.5-1.8-2.8-1.8-2.8s-1.8,1.4-1.3,3.5C300.3,88.1,301.1,89.4,301.1,89.4L301.1,89.4z"
	/>
<path d="M298.5,85.2c0,0,2.2-2.7,1.7-4.2c-0.4-1.5-1.8-2.8-1.8-2.8s-1.8,1.4-1.3,3.5C297.7,83.9,298.5,85.2,298.5,85.2L298.5,85.2z"
	/>
<path d="M295.6,80.9c0,0,2.2-2.7,1.7-4.2c-0.4-1.5-1.8-2.8-1.8-2.8s-1.8,1.4-1.3,3.5C294.8,79.6,295.6,80.9,295.6,80.9L295.6,80.9z"
	/>
<path d="M292.3,76.3c0,0,2.2-2.7,1.7-4.2s-1.8-2.8-1.8-2.8s-1.8,1.4-1.3,3.5C291.5,75,292.3,76.3,292.3,76.3L292.3,76.3z"/>
<path d="M288.8,72c0,0,2.2-2.7,1.7-4.2s-1.8-2.8-1.8-2.8s-1.8,1.4-1.3,3.5C288,70.8,288.8,72,288.8,72L288.8,72z"/>
<path d="M285.3,67.1c0,0,2.2-2.7,1.7-4.2c-0.4-1.5-1.8-2.8-1.8-2.8s-1.8,1.4-1.3,3.5C284.5,65.8,285.3,67.1,285.3,67.1L285.3,67.1z"
	/>
<path d="M281.9,62.5c0,0,2.2-2.7,1.7-4.2s-1.8-2.8-1.8-2.8s-1.8,1.4-1.3,3.5C281.1,61.2,281.9,62.5,281.9,62.5L281.9,62.5z"/>
<path d="M278.2,58.8c0,0,2.2-2.7,1.7-4.2c-0.4-1.5-1.8-2.8-1.8-2.8s-1.8,1.4-1.3,3.5C277.4,57.5,278.2,58.8,278.2,58.8L278.2,58.8z"
	/>
<path d="M274.4,54.8c0,0,1.8-2.9,1.3-4.4s-2.1-2.5-2.1-2.5s-1.7,1.6-0.9,3.6C273.5,53.6,274.4,54.8,274.4,54.8L274.4,54.8z"/>
<path d="M266.2,49c0,0,1.9-2.9,1.3-4.4c-0.6-1.4-2.1-2.5-2.1-2.5s-1.7,1.6-0.9,3.6C265.3,47.8,266.2,49,266.2,49L266.2,49z"/>
<path d="M262,46.8c0,0,1.8-2.9,1.3-4.4c-0.6-1.4-2.1-2.5-2.1-2.5s-1.7,1.6-0.9,3.6C261.1,45.6,262,46.8,262,46.8z"/>
<path d="M270.4,51.9c0,0,1.8-2.9,1.3-4.4c-0.6-1.4-2.1-2.5-2.1-2.5s-1.7,1.6-0.9,3.6S270.4,51.9,270.4,51.9L270.4,51.9z"/>
<path d="M258.5,44.3c0,0,1.8-2.9,1.3-4.4c-0.6-1.4-2.1-2.5-2.1-2.5s-1.7,1.6-0.9,3.6C257.5,43.1,258.5,44.3,258.5,44.3L258.5,44.3z"
	/>
<path d="M312.5,92.8c0,0-1-3.3-2.4-3.8c-1.5-0.5-3.3-0.1-3.3-0.1s0.1,2.3,2.1,3.1C311,92.7,312.5,92.8,312.5,92.8L312.5,92.8z"/>
<path d="M310,88.3c0,0-1-3.3-2.4-3.8c-1.5-0.5-3.3-0.1-3.3-0.1s0.1,2.3,2.1,3.1C308.4,88.2,309.9,88.3,310,88.3L310,88.3z"/>
<path d="M307.3,83.6c0,0-1-3.3-2.4-3.8c-1.5-0.5-3.3-0.1-3.3-0.1s0.1,2.3,2.1,3.1C305.7,83.5,307.3,83.6,307.3,83.6L307.3,83.6z"/>
<path d="M304.6,78.9c0,0-1-3.3-2.4-3.8c-1.5-0.5-3.3-0.1-3.3-0.1s0.1,2.3,2.1,3.1C303,78.8,304.6,78.9,304.6,78.9L304.6,78.9z"/>
<path d="M301.8,74.3c0,0-1-3.3-2.4-3.8s-3.3-0.1-3.3-0.1s0.1,2.3,2.1,3.1C300.3,74.2,301.8,74.3,301.8,74.3L301.8,74.3z"/>
<path d="M298.6,69.6c0,0-1-3.3-2.4-3.8c-1.5-0.5-3.3-0.1-3.3-0.1s0.1,2.3,2.1,3.1C297.1,69.5,298.6,69.6,298.6,69.6L298.6,69.6z"/>
<path d="M295.3,65.2c0,0-1-3.3-2.4-3.8c-1.5-0.5-3.3-0.1-3.3-0.1s0.1,2.3,2.1,3.1C293.7,65.1,295.3,65.2,295.3,65.2L295.3,65.2z"/>
<path d="M291.9,60.8c0,0-1-3.3-2.4-3.8c-1.5-0.5-3.3-0.1-3.3-0.1s0.1,2.3,2.1,3.1C290.4,60.7,291.9,60.8,291.9,60.8L291.9,60.8z"/>
<path d="M288.1,56.6c0,0-1-3.3-2.4-3.8c-1.5-0.5-3.3-0.1-3.3-0.1s0.1,2.3,2.1,3.1C286.6,56.5,288.1,56.6,288.1,56.6L288.1,56.6z"/>
<path d="M284.1,52c0,0-1.2-3.2-2.7-3.6c-1.5-0.4-3.3,0.1-3.3,0.1s0.2,2.3,2.4,2.9C282.6,52,284.1,52,284.1,52L284.1,52z"/>
<path d="M280,47.1c0,0-2.1-2.7-3.6-2.7c-1.5,0.1-3.1,1.1-3.1,1.1s0.9,2.1,3.1,2.1C278.5,47.6,280,47.1,280,47.1L280,47.1z"/>
<path d="M275.5,44c0,0-2.1-2.8-3.7-2.7c-1.5,0.1-3.1,1.1-3.1,1.1s0.9,2.1,3.1,2.1C274,44.4,275.5,44,275.5,44L275.5,44z"/>
<path d="M271,40.8c0,0-2.1-2.8-3.7-2.7c-1.5,0.1-3.1,1.1-3.1,1.1s0.9,2.1,3.1,2.1C269.5,41.3,271,40.8,271,40.8L271,40.8z"/>
<path d="M265.4,38c0,0-2.2-2.7-3.7-2.6c-1.5,0.1-3.1,1.2-3.1,1.2s1,2.1,3.2,2C264,38.5,265.4,38,265.4,38z"/>
<path d="M331,61l-1.3-1.1l-7-5.7c-11.8-9.6-19.9-15.4-34.1-22.4c-12.4-6.1-20.3-6.2-26-6.2c-0.9,0-1.7,0-2.5,0
	c-5.8-0.2-13.7,3.9-14,4l0.5,0.9c0.1,0,8-4.1,13.5-3.9c0.8,0,1.6,0,2.5,0c5.6,0,13.4,0.1,25.6,6.1c14.2,7,22.4,12.6,34.1,22.1
	c3.4,2.8,5.6,4.4,8.1,6.6l0.5,0.3c0.7,0.5,0.2,0.7,0.5,0.3C331.7,61.7,331.4,61.4,331,61L331,61z"/>
<path class="st0" d="M272.5,27.1c0,0,16.3-0.2,30.8,5.5s72,31.9,84.7,41.3"/>
<path class="st0" d="M274.9,27.4c0,0,14.6-0.7,41.7,9.5c27.1,10.2,76.4,38.4,76.4,38.4"/>
<path class="st0" d="M285.5,28c0,0,26.2,7.4,39.7,13.5c13.5,6.1,47,22.1,50.1,23.3c3.1,1.1,16.3,6.4,16.3,6.4"/>
<path class="st0" d="M386.6,70c0,0-26.8-11.7-33.5-14.3c-6.7-2.6-28.3-12.4-44.2-18.4C293,31.2,277.1,30,277.1,30
	s30.7,22.8,46.6,35.9c15.9,13.1,46,40.8,53.7,45.2c7.7,4.4,12.9,8.8,12.9,8.8S346,85.4,335.4,74.7c-10.6-10.7-27-22.7-42.3-33.1
	c-15.3-10.5-26.7-13.8-28.6-14.2"/>
<path class="st0" d="M265.9,29.3c0,0,19.6,9.6,30.2,16.4s36.4,27.3,46,36.2s25.6,22.8,32,27.1c6.4,4.4,12.3,9,12.3,9"/>
<path class="st0" d="M272.4,31.5c0,0,8,4,16,8.5c8,4.5,22.7,15.9,30.7,21.6c8,5.7,41.9,36.2,44.3,37.9c2.4,1.7,19,14.5,21,16.6
	c2.1,2.1,3.4,3,3.4,3"/>
<path class="st0" d="M385.5,67.1c0,0-26.8-11.8-33.5-14.3c-6.7-2.6-28.3-12.4-44.2-18.4c-15.9-6-31.8-7.2-31.8-7.2
	s30.7,22.8,46.6,35.9c15.9,13.1,46,40.8,53.7,45.2c7.7,4.4,12.9,8.8,12.9,8.8s-44.3-34.5-54.9-45.2c-10.6-10.7-27-22.7-42.3-33.1
	s-26.7-13.8-28.6-14.2"/>
<path class="st0" d="M263.7,29.8c0,0,19.6,9.6,30.2,16.4s36.5,27.2,46,36.2s25.6,22.8,32,27.1c6.5,4.4,12.3,9,12.3,9"/>
<path class="st0" d="M270.7,30.2c0,0,8,4,16,8.5c8,4.5,22.7,15.9,30.7,21.6c8,5.7,41.9,36.2,44.3,37.9c2.4,1.7,19,14.5,21,16.6
	c2.1,2.1,3.4,3,3.4,3"/>
<path class="st0" d="M396.3,108.4c0,0-15-3.3-42.2-24.1c-27.2-20.9-42.3-30.2-45.6-32.2c-3.3-2-39.3-24.3-39.3-24.3"/>
<path class="st0" d="M401.5,101.9c0,0-27.9-13-51.5-31.7c-23.6-18.7-41.8-33.6-53.2-38.3c-11.5-4.7-29.5-7.4-29.5-7.4"/>
<path class="st0" d="M399.8,101.2c0,0-31.7-20-49.8-34.1c-18.1-14.2-35.2-25.3-42.2-30c-7-4.6-21.7-9.5-21.7-9.5"/>
<path class="st0" d="M400.9,101.6c0,0-27.8-13-51.5-31.7c-23.6-18.7-41.8-33.6-53.2-38.3c-11.5-4.7-29.5-7.4-29.5-7.4"/>
<path class="st0" d="M399.2,100.8c0,0-31.7-20-49.8-34.1c-18.1-14.2-35.2-25.3-42.2-30c-7-4.6-21.7-9.5-21.7-9.5"/>
<path class="st0" d="M392.4,99c0,0-20.6-16.8-37.9-28.9c-17.2-12.1-35.2-24.3-35.2-24.3s-7.2-4.3-18.5-9.9s-23.4-10.5-23.4-10.5"/>
<path class="st0" d="M391.3,99.2c0,0-20.6-16.8-37.8-28.9C336.2,58.2,318.2,46,318.2,46s-7.2-4.3-18.5-9.9s-23.4-10.5-23.4-10.5"/>
<path d="M337,63.3c0,0-1.6-3.1-3.1-3.3c-1.5-0.2-3.2,0.5-3.2,0.5s0.5,2.2,2.7,2.6C335.5,63.5,337,63.3,337,63.3L337,63.3z"/>
<path d="M330,66.5c0,0,1.1-3.3,0.2-4.5c-0.9-1.2-2.6-2-2.6-2s-1.2,1.9,0,3.7C328.8,65.6,330,66.5,330,66.5L330,66.5z"/>
<path d="M326.2,62.9c0,0,1.1-3.3,0.2-4.5c-0.9-1.2-2.6-2-2.6-2s-1.2,1.9,0,3.7C325,62,326.2,62.9,326.2,62.9L326.2,62.9z"/>
<path d="M321.7,59.8c0,0,1.1-3.3,0.2-4.5c-0.9-1.2-2.6-2-2.6-2s-1.2,1.9,0,3.7C320.5,58.8,321.7,59.8,321.7,59.8L321.7,59.8z"/>
<path d="M317.8,56.8c0,0,1.1-3.3,0.2-4.5c-0.9-1.2-2.6-2-2.6-2s-1.2,1.9,0,3.7C316.6,55.9,317.8,56.8,317.8,56.8L317.8,56.8z"/>
<path d="M313.6,53.8c0,0,1.1-3.3,0.2-4.5c-0.9-1.3-2.6-2-2.6-2s-1.2,1.9,0,3.7C312.4,52.9,313.6,53.8,313.6,53.8L313.6,53.8z"/>
<path d="M308.9,50.6c0,0,1.1-3.3,0.2-4.5s-2.6-2-2.6-2s-1.2,1.9,0,3.7C307.7,49.7,308.8,50.6,308.9,50.6L308.9,50.6z"/>
<path d="M304.1,47.8c0,0,1.1-3.3,0.2-4.5c-0.9-1.2-2.6-2-2.6-2s-1.2,1.9,0,3.7C302.9,46.9,304.1,47.8,304.1,47.8L304.1,47.8z"/>
<path d="M299.1,44.4c0,0,1.1-3.3,0.2-4.5s-2.6-2-2.6-2s-1.2,1.9,0,3.7C297.9,43.5,299.1,44.4,299.1,44.4L299.1,44.4z"/>
<path d="M294.3,41.3c0,0,1.1-3.3,0.2-4.5c-0.9-1.2-2.6-2-2.6-2s-1.2,1.9,0,3.7C293.1,40.3,294.3,41.3,294.3,41.3L294.3,41.3z"/>
<path d="M289.5,39.1c0,0,1.1-3.3,0.2-4.5c-0.9-1.2-2.6-2-2.6-2s-1.2,1.9,0,3.8C288.4,38.1,289.5,39.1,289.5,39.1L289.5,39.1z"/>
<path d="M284.6,36.7c0,0,0.7-3.4-0.3-4.5c-1.1-1.1-2.8-1.7-2.8-1.7s-1,2.1,0.4,3.7C283.3,35.9,284.6,36.7,284.6,36.7L284.6,36.7z"/>
<path d="M274.9,34.1c0,0,0.7-3.4-0.3-4.5c-1.1-1.1-2.8-1.7-2.8-1.7s-1,2.1,0.4,3.7C273.7,33.3,274.9,34.1,274.9,34.1L274.9,34.1z"/>
<path d="M270.2,33.4c0,0,0.7-3.4-0.3-4.5c-1.1-1.1-2.8-1.7-2.8-1.7s-1,2.1,0.4,3.7C268.9,32.7,270.2,33.4,270.2,33.4L270.2,33.4z"/>
<path d="M279.9,35.3c0,0,0.7-3.4-0.3-4.5c-1.1-1.1-2.8-1.7-2.8-1.7s-1,2,0.4,3.7C278.6,34.5,279.9,35.3,279.9,35.3L279.9,35.3z"/>
<path d="M266,32.3c0,0,0.7-3.4-0.3-4.5c-1-1.1-2.8-1.7-2.8-1.7s-1,2.1,0.4,3.7C264.7,31.5,266,32.3,266,32.3L266,32.3z"/>
<path d="M333.6,59.1c0,0-2.1-2.8-3.6-2.8s-3.1,1-3.1,1s0.9,2.1,3.1,2.1S333.6,59.1,333.6,59.1L333.6,59.1z"/>
<path d="M329.6,55.7c0,0-2.1-2.8-3.6-2.8s-3.1,1-3.1,1s0.9,2.1,3.1,2.2C328.2,56.1,329.6,55.7,329.6,55.7L329.6,55.7z"/>
<path d="M325.5,52.2c0,0-2.1-2.8-3.6-2.7c-1.5,0-3.1,1-3.1,1s0.9,2.1,3.1,2.2C324,52.7,325.5,52.2,325.5,52.2L325.5,52.2z"/>
<path d="M321.3,48.8c0,0-2.1-2.8-3.6-2.8c-1.5,0-3.1,1-3.1,1s0.9,2.1,3.1,2.2C319.8,49.2,321.3,48.8,321.3,48.8L321.3,48.8z"/>
<path d="M317.1,45.4c0,0-2.1-2.8-3.6-2.8c-1.5,0-3.1,1-3.1,1s0.9,2.1,3.1,2.1C315.7,45.8,317.1,45.4,317.1,45.4z"/>
<path d="M312.5,42.1c0,0-2.1-2.8-3.6-2.8c-1.5,0-3.1,1-3.1,1s0.9,2.1,3.1,2.1C311,42.5,312.5,42.1,312.5,42.1L312.5,42.1z"/>
<path d="M307.8,39.2c0,0-2.1-2.8-3.6-2.8s-3.1,1-3.1,1s0.9,2.1,3.1,2.2C306.4,39.6,307.8,39.2,307.8,39.2L307.8,39.2z"/>
<path d="M303.1,36.2c0,0-2.1-2.8-3.6-2.8c-1.5,0-3.1,1-3.1,1s0.9,2.1,3.1,2.1C301.7,36.7,303.1,36.2,303.1,36.2L303.1,36.2z"/>
<path d="M298.1,33.6c0,0-2.1-2.8-3.6-2.8s-3.1,1-3.1,1s0.9,2.1,3.1,2.1C296.7,34,298.1,33.6,298.1,33.6L298.1,33.6z"/>
<path d="M292.8,30.7c0,0-2.3-2.6-3.8-2.5c-1.5,0.1-3,1.3-3,1.3s1,2,3.2,1.9C291.4,31.2,292.8,30.7,292.8,30.7L292.8,30.7z"/>
<path d="M287.2,27.5c0,0-2.9-1.8-4.4-1.3c-1.4,0.6-2.5,2.1-2.5,2.1s1.6,1.7,3.6,0.9C286,28.5,287.2,27.5,287.2,27.5L287.2,27.5z"/>
<path d="M281.9,26.1c0,0-2.9-1.9-4.4-1.3c-1.4,0.6-2.5,2.1-2.5,2.1s1.6,1.7,3.6,0.9C280.7,27.1,281.9,26.1,281.9,26.1L281.9,26.1z"
	/>
<path d="M276.6,24.8c0,0-2.9-1.9-4.4-1.3c-1.4,0.6-2.5,2.1-2.5,2.1s1.6,1.7,3.6,0.9C275.4,25.7,276.6,24.8,276.6,24.8L276.6,24.8z"
	/>
<path d="M270.4,24.1c0,0-3-1.8-4.4-1.1c-1.4,0.6-2.5,2.2-2.5,2.2s1.6,1.6,3.7,0.8C269.2,25,270.4,24.1,270.4,24.1L270.4,24.1z"/>
<path class="st1" d="M255.7,26.7c0-14.3-23-25.9-51.3-25.9s-51.3,11.6-51.3,25.9s23,25.9,51.3,25.9S255.7,41,255.7,26.7"/>
<g>
	<path class="st2" d="M194.5,17.8c0,0-2.9-1.8,0.3-4.5s6.2-4.6,6.2-4.6l-0.8-1.1c0,0-6.4,3.9-6.5,4.1c-0.1,0.2-4.2,2.4-4.2,2.4
		l1.6,3.5L194.5,17.8L194.5,17.8z"/>
	<path class="st2" d="M181.7,10.6c0,0-1.1-0.4-2.6-0.2c-1.5,0.2-2.4,0.2-2.8,0.6s-3.1,1.6-3.1,1.6s-0.7,0.6-0.8,0.9
		s-0.1,1.3-0.1,1.3l4.4,0.9L181.7,10.6L181.7,10.6z"/>
	<path class="st2" d="M170.4,34.5c0,0-1.8,1.2-2,2.4c-0.2,1.2-0.5,3.1-0.1,3.5c0.4,0.4,2,0.9,3.1,0.1c1.2-0.8,0.3-3.1,0.3-3.1
		L170.4,34.5L170.4,34.5z"/>
	<path class="st2" d="M182.2,39.4c0,0-0.8,2.4-2.3,2.7c-1.5,0.2-3.5,0.6-3.8,0.3c-0.3-0.3-0.8-1.3-0.6-1.7c0.2-0.3,2.3-1.8,2.9-2.2
		c0.5-0.4,1.6-1.6,1.6-1.6L182.2,39.4L182.2,39.4z"/>
	<path class="st2" d="M172.6,31.3c0,0-1.6,2-1.9,3.2c-0.2,1.2-1.1,5.2,0,6c1.1,0.8,3.1,0.7,3.5,0.6s0.5-0.5,1.9-0.9
		c1.4-0.4,3.8-3.4,3.8-3.4l-2-3.5l-3.5-2.7L172.6,31.3L172.6,31.3z"/>
	<path class="st2" d="M167,25.7c0,0-1.8,1.7-2.4,3c-0.6,1.3-0.8,4-0.6,4.2c0.2,0.2,1.8-0.3,2.4-1s1.6-4.7,1.6-4.7L167,25.7L167,25.7
		z"/>
	<path class="st2" d="M167,27.7c0,0-2.4,5-2.1,7c0.4,2,0.3,2.4,0.3,2.4l2,1.2c0,0,1.4-0.4,2.1-0.6c0.7-0.2,4.1-6.4,4.1-6.4l0.4-1
		L167,27.7L167,27.7z"/>
	<path class="st2" d="M168.4,20.5c0,0-4.9,4.6-0.5,8.6c2.4,2.2,5.5,1.4,5.5,1.4l0.2-7L168.4,20.5L168.4,20.5z"/>
	<path class="st2" d="M183.1,31.5c0,0-1,3.1-1.8,3.9c-0.8,0.8-2,1.7-3.2,1.3c-1.2-0.3-1.1-3.7-0.8-5.2
		C177.7,29.9,183,31.5,183.1,31.5L183.1,31.5z"/>
	<path class="st2" d="M177.7,14.6c0,0-5.7-0.6-6.3-0.5c-0.6,0.2-3.3,0.9-3.6,3.4c-0.3,2.5,1.3,4,1.3,4s1.7,1.7,2.7,1.8
		s2.5-0.4,2.5-0.4L177.7,14.6L177.7,14.6z"/>
	<path class="st2" d="M183.9,29.5c0,0-3.7,6.4-8.9,2.6c-5.2-3.7-3.6-6.6-1.7-10.1c1.9-3.5,3.3-3,3.3-3l8,0.9l0.8,6.6L183.9,29.5
		L183.9,29.5z"/>
	<path class="st2" d="M196,24.1c0,0,0.3,3.7-0.5,5c-0.8,1.3-1.8,2.4-3.8,2.1c-2-0.3,0.1-8.5,0.1-8.5L196,24.1L196,24.1z"/>
	<path class="st2" d="M193.1,24.4c0,0,0.1,5.8-0.9,7.2s-4.3,2-4.3,2l-0.5-6.9L193.1,24.4L193.1,24.4z"/>
	<path class="st2" d="M189.3,28.5c0,0,0.7,5.1,0.1,6.4s-0.9,2.2-2.7,3c-1.7,0.9-2.7,1.1-3.6,1.2c-0.9,0.1-1.4,0.3-1.9-0.1
		c-0.5-0.4-1.6-1.8-1.3-3.2c0.2-1.5,3.4-6.5,3.4-6.5L189.3,28.5L189.3,28.5z"/>
	<path class="st2" d="M192.7,23.5c0,0-0.4,2.8-2,4.9c-1.7,2.1-3,2.6-4.2,2.9c-1.2,0.3-4.1,0.2-4.1,0.2s-1-5.7,0.6-8.9
		c1.6-3.3,2.4-4.6,2.4-4.6l4.6,0.4L192.7,23.5L192.7,23.5z"/>
	<path class="st2" d="M184.7,10.2l-3.8-0.1l-1.1,0.7l-1,0.9c0,0-0.4-0.1-0.8,0.2c-0.4,0.2-1,0.3-1.4,1s-0.9,1.1-1.4,1.8
		c-0.5,0.7-1.5,2-1.5,2h-0.4c0,0-1.1,0.9-1.1,1.1s-0.3,1.4,0.1,1.7c0.4,0.3,1.3,1.2,1.3,1.2s1.3,1.5,5.5,1.3
		c4.2-0.2,6.4-2.5,6.4-2.5l1.5-1.6L184.7,10.2L184.7,10.2z"/>
	<path class="st2" d="M192.7,16.1c0,0,5,0,5.2,3.8s-1.7,5.5-1.7,5.5l-4.8,0.2c0,0-2.4-2.3-2.6-4.2C188.6,19.6,189.1,16.6,192.7,16.1
		L192.7,16.1z"/>
	<path class="st2" d="M190.5,14.1c0,0,0.6-2.1,0.4-2.9c-0.2-0.8-1-1.9-2.3-2.8c-1.2-0.9-2.6-1.3-3.3-1.3c-0.8,0.1-1.7,0.1-1.7,0.1
		s-0.5,2.3-0.4,2.9c0.1,0.5,3.6,3.3,3.6,3.3L190.5,14.1L190.5,14.1z"/>
	<path class="st2" d="M190.9,13.5c0,0-1.7-2.4-3-2.6c-1.2-0.2-4.1,0-4.1,0l-1.6,2c0,0,0.1,2.6,0.8,3.5c0.6,0.9,0.5,2.2,1.6,2.2
		c1.2,0.1,2.2,0.6,2.4,0.6s1,0.3,1,0.3h2.4c0,0,0.6-0.1,0.9-0.5c0.3-0.4,0.8-0.9,0.8-1.5s-0.1-1-0.2-1.8c-0.2-0.8-0.7-1.2-0.7-1.2
		S190.9,13.5,190.9,13.5z"/>
	<path class="st2" d="M191.3,16.4l-0.1-2.4"/>
	<path class="st2" d="M196.6,11.3c0,0-0.5,1.8,0,3.3c0.4,1.5,1.2,2.8,1.2,2.8s-3.1-2.6-3-3.2s0.1-1.8,0.1-1.8"/>
	<path class="st2" d="M202.5,14.4c0,0,3.4,0.6,2.8-3.6s-1.6-7.6-1.6-7.6l1.3-0.3c0,0,2.2,7.1,2.2,7.4c0,0.2,1.5,4.6,1.5,4.6
		l-3.5,1.6L202.5,14.4L202.5,14.4z"/>
	<path class="st2" d="M196,17.4c0,0-1.1,0.4-2.1,1.5c-1,1.1-1.6,1.7-1.7,2.3c-0.1,0.5-1.3,3.2-1.3,3.2s-0.1,0.9,0,1.2s0.8,1,0.8,1
		l3.9-2.3L196,17.4L196,17.4z"/>
	<path class="st2" d="M203.3,42.9c0,0-0.6,2.1,0.1,3.2c0.6,1.1,1.7,2.6,2.2,2.7c0.5,0.1,2.1-0.7,2.4-2c0.4-1.3-1.9-2.6-1.9-2.6
		L203.3,42.9L203.3,42.9z"/>
	<path class="st2" d="M215.4,38.7c0,0,1,2.4,0,3.6c-1,1.2-2.2,2.7-2.7,2.7s-1.4-0.5-1.6-0.9c-0.1-0.4,0.6-2.9,0.7-3.5
		c0.1-0.7,0.1-2.3,0.1-2.3L215.4,38.7L215.4,38.7z"/>
	<path class="st2" d="M202.9,39c0,0,0.1,2.6,0.7,3.6c0.6,1.1,2.6,4.7,4,4.5c1.3-0.2,2.8-1.5,3.1-1.8c0.3-0.3,0-0.7,0.8-1.9
		c0.8-1.2,0.6-5.1,0.6-5.1l-3.8-1.3l-4.4,0.2L202.9,39L202.9,39z"/>
	<path class="st2" d="M194.9,38.5c0,0-0.2,2.4,0.2,3.8c0.4,1.4,2,3.5,2.3,3.5s1.1-1.5,1.1-2.3c0-0.9-1.9-4.5-1.9-4.5L194.9,38.5
		L194.9,38.5z"/>
	<path class="st2" d="M196.3,40c0,0,1.4,5.3,3,6.6c1.6,1.3,1.8,1.6,1.8,1.6l2.3-0.5c0,0,0.8-1.2,1.2-1.9s-1.2-7.5-1.2-7.5l-0.4-1
		L196.3,40L196.3,40z"/>
	<path class="st2" d="M192.6,33.7c0,0-0.7,6.7,5.3,6.8c3.3,0,5-2.6,5-2.6l-4.4-5.4L192.6,33.7L192.6,33.7z"/>
	<path class="st2" d="M210.8,32.3c0,0,1.3,3,1.3,4.1s-0.4,2.6-1.5,3.1c-1.1,0.5-3.3-2-4-3.4C205.8,34.6,210.8,32.3,210.8,32.3
		L210.8,32.3z"/>
	<path class="st2" d="M195.7,23.1c0,0-4.7,3.2-5,3.8c-0.4,0.6-1.8,2.9-0.5,5c1.4,2.1,3.6,2.1,3.6,2.1s2.4,0.2,3.2-0.4
		c0.8-0.6,1.6-2,1.6-2L195.7,23.1L195.7,23.1z"/>
	<path class="st2" d="M210.2,30.2c0,0,1.4,7.2-5,7.9c-6.4,0.7-7.1-2.6-8-6.5c-0.9-3.9,0.5-4.4,0.5-4.4l6.6-4.6l4.9,4.5L210.2,30.2
		L210.2,30.2z"/>
	<path class="st2" d="M215.7,18.2c0,0,2.7,2.6,3,4.1c0.2,1.5,0.2,3-1.5,4.1c-1.7,1.1-5.5-6.5-5.5-6.5L215.7,18.2L215.7,18.2z"/>
	<path class="st2" d="M213.7,20.3c0,0,3.9,4.3,4.1,6c0.2,1.7-1.9,4.3-1.9,4.3l-4.9-4.9L213.7,20.3L213.7,20.3z"/>
	<path class="st2" d="M213.5,25.9c0,0,3.9,3.4,4.3,4.7c0.4,1.3,0.7,2.2,0,4s-1.3,2.6-1.9,3.3c-0.6,0.6-0.9,1.1-1.5,1.2
		c-0.6,0.1-2.3-0.3-3.1-1.5c-0.8-1.3-1.8-7.1-1.8-7.1L213.5,25.9L213.5,25.9z"/>
	<path class="st2" d="M212.8,19.8c0,0,1.6,2.3,1.7,5s-0.6,4-1.2,5c-0.7,1-2.9,2.9-2.9,2.9s-4.5-3.6-5.4-7.1s-1.2-5.1-1.2-5.1
		l3.7-2.8L212.8,19.8L212.8,19.8z"/>
	<path class="st2" d="M198,15.2l-2.9,2.5l-0.3,1.2l-0.2,1.4c0,0-0.3,0.2-0.5,0.6c-0.2,0.4-0.5,0.9-0.4,1.7c0.1,0.8,0,1.4,0.1,2.3
		c0.1,0.8,0.2,2.5,0.2,2.5l-0.3,0.2c0,0-0.2,1.4-0.1,1.5c0.1,0.2,0.7,1.2,1.2,1.2s1.7,0,1.7,0s2,0.3,5-2.6s3.1-6.1,3.1-6.1l0.1-2.2
		L198,15.2L198,15.2z"/>
	<path class="st2" d="M207.9,14.3c0,0,3.7-3.3,6.5-0.6c2.8,2.7,2.3,5.3,2.3,5.3l-3.5,3.4c0,0-3.3-0.1-4.7-1.5
		C207.1,19.6,205.5,17.1,207.9,14.3L207.9,14.3z"/>
	<path class="st2" d="M205,14.3c0,0-0.9-2-1.6-2.4c-0.7-0.4-2-0.7-3.6-0.6c-1.5,0.1-2.8,0.7-3.3,1.2c-0.5,0.5-1.2,1.2-1.2,1.2
		s1.2,2.1,1.6,2.4c0.4,0.4,4.9,0.1,4.9,0.1L205,14.3L205,14.3z"/>
	<path class="st2" d="M204.9,13.5c0,0-2.9-0.7-4,0c-1,0.7-3.1,2.7-3.1,2.7l0.1,2.6c0,0,1.8,1.9,2.9,2.1c1.1,0.2,1.8,1.3,2.7,0.6
		c0.9-0.7,2-1,2.3-1.1c0.2-0.1,0.9-0.4,0.9-0.4l1.8-1.6c0,0,0.4-0.5,0.4-1c0-0.5,0-1.2-0.4-1.7c-0.4-0.4-0.7-0.8-1.4-1.2
		c-0.6-0.5-1.3-0.4-1.3-0.4L204.9,13.5L204.9,13.5z"/>
	<path class="st2" d="M207.1,15.5l-1.7-1.8"/>
	<path class="st2" d="M205.2,8.1c0,0-0.8,1.7-2.2,2.5c-1.3,0.8-2.7,1.3-2.7,1.3s4,0.1,4.4-0.5c0.4-0.5,1.1-1.4,1.1-1.4"/>
	<path class="st2" d="M215.3,17.8c0,0,2.9-1.8-0.3-4.5s-6.2-4.6-6.2-4.6l0.8-1.1c0,0,6.4,3.9,6.5,4.1c0.1,0.2,4.2,2.4,4.2,2.4
		l-1.6,3.5L215.3,17.8L215.3,17.8z"/>
	<path class="st2" d="M228.1,10.6c0,0,1.1-0.4,2.6-0.2c1.5,0.2,2.4,0.2,2.8,0.6s3.1,1.6,3.1,1.6s0.7,0.6,0.8,0.9s0.1,1.3,0.1,1.3
		l-4.4,0.9L228.1,10.6L228.1,10.6z"/>
	<path class="st2" d="M239.4,34.5c0,0,1.8,1.2,2,2.4s0.5,3.1,0.1,3.5c-0.4,0.4-2,0.9-3.1,0.1c-1.2-0.8-0.3-3.1-0.3-3.1L239.4,34.5
		L239.4,34.5z"/>
	<path class="st2" d="M227.6,39.4c0,0,0.8,2.4,2.3,2.7c1.5,0.2,3.5,0.6,3.8,0.3c0.3-0.3,0.8-1.3,0.6-1.7c-0.2-0.3-2.3-1.8-2.9-2.2
		c-0.5-0.4-1.6-1.6-1.6-1.6L227.6,39.4L227.6,39.4z"/>
	<path class="st2" d="M237.2,31.3c0,0,1.6,2,1.9,3.2c0.2,1.2,1.1,5.2,0,6c-1.1,0.8-3.1,0.7-3.5,0.6c-0.4-0.1-0.5-0.5-1.9-0.9
		c-1.4-0.4-3.8-3.4-3.8-3.4l2-3.5l3.5-2.7L237.2,31.3L237.2,31.3z"/>
	<path class="st2" d="M242.8,25.7c0,0,1.8,1.7,2.4,3s0.8,4,0.6,4.2c-0.2,0.2-1.8-0.3-2.4-1c-0.6-0.6-1.6-4.7-1.6-4.7L242.8,25.7
		L242.8,25.7z"/>
	<path class="st2" d="M242.8,27.7c0,0,2.4,5,2.1,7s-0.3,2.4-0.3,2.4l-2,1.2c0,0-1.4-0.4-2.1-0.6c-0.7-0.2-4.1-6.4-4.1-6.4l-0.4-1
		L242.8,27.7L242.8,27.7z"/>
	<path class="st2" d="M241.4,20.5c0,0,4.9,4.6,0.5,8.6c-2.4,2.2-5.5,1.4-5.5,1.4l-0.2-7L241.4,20.5L241.4,20.5z"/>
	<path class="st2" d="M226.7,31.5c0,0,1,3.1,1.7,3.9c0.8,0.8,2,1.7,3.2,1.3c1.2-0.3,1.1-3.7,0.8-5.2
		C232.1,29.9,226.7,31.5,226.7,31.5L226.7,31.5z"/>
	<path class="st2" d="M232.1,14.6c0,0,5.7-0.6,6.3-0.5c0.6,0.2,3.3,0.9,3.6,3.4c0.3,2.5-1.3,4-1.3,4s-1.7,1.7-2.7,1.8
		s-2.5-0.4-2.5-0.4L232.1,14.6z"/>
	<path class="st2" d="M225.9,29.5c0,0,3.7,6.4,8.9,2.6c5.2-3.7,3.6-6.6,1.7-10.1c-1.9-3.5-3.3-3-3.3-3l-8,0.9l-0.8,6.6L225.9,29.5
		L225.9,29.5z"/>
	<path class="st2" d="M213.8,24.1c0,0-0.3,3.7,0.5,5c0.8,1.3,1.8,2.4,3.8,2.1c2-0.3-0.1-8.5-0.1-8.5L213.8,24.1L213.8,24.1z"/>
	<path class="st2" d="M216.7,24.4c0,0-0.1,5.8,0.9,7.2s4.3,2,4.3,2l0.5-6.9L216.7,24.4L216.7,24.4z"/>
	<path class="st2" d="M220.5,28.5c0,0-0.7,5.1-0.1,6.4c0.6,1.3,0.9,2.2,2.7,3c1.7,0.9,2.7,1.1,3.6,1.2c0.9,0.1,1.4,0.3,1.9-0.1
		c0.5-0.4,1.6-1.8,1.3-3.2c-0.2-1.5-3.4-6.5-3.4-6.5L220.5,28.5L220.5,28.5z"/>
	<path class="st2" d="M217.1,23.5c0,0,0.4,2.8,2,4.9c1.7,2.1,3,2.6,4.2,2.9c1.2,0.3,4.1,0.2,4.1,0.2s1-5.7-0.6-8.9
		c-1.6-3.3-2.4-4.6-2.4-4.6l-4.6,0.4L217.1,23.5L217.1,23.5z"/>
	<path class="st2" d="M225.1,10.2l3.8-0.1l1,0.7l1.1,0.9c0,0,0.3-0.1,0.8,0.2c0.4,0.2,1,0.3,1.4,1s0.9,1.1,1.4,1.8
		c0.5,0.7,1.5,2,1.5,2h0.4c0,0,1,0.9,1,1.1s0.3,1.4-0.1,1.7c-0.4,0.3-1.3,1.2-1.3,1.2s-1.3,1.5-5.5,1.3c-4.2-0.2-6.4-2.5-6.4-2.5
		l-1.5-1.6L225.1,10.2L225.1,10.2z"/>
	<path class="st2" d="M217.1,16.1c0,0-5,0-5.2,3.8s1.7,5.5,1.7,5.5l4.8,0.2c0,0,2.4-2.3,2.6-4.2C221.2,19.6,220.7,16.6,217.1,16.1
		L217.1,16.1z"/>
	<path class="st2" d="M219.3,14.1c0,0-0.6-2.1-0.4-2.9c0.2-0.8,1-1.9,2.3-2.8c1.2-0.9,2.6-1.3,3.3-1.3c0.8,0.1,1.7,0.1,1.7,0.1
		s0.5,2.3,0.4,2.9c-0.1,0.5-3.6,3.3-3.6,3.3L219.3,14.1L219.3,14.1z"/>
	<path class="st2" d="M218.9,13.5c0,0,1.7-2.4,3-2.6c1.2-0.2,4.1,0,4.1,0l1.6,2c0,0-0.1,2.6-0.8,3.5c-0.6,0.9-0.5,2.2-1.6,2.2
		s-2.2,0.6-2.4,0.6s-1,0.3-1,0.3h-2.4c0,0-0.6-0.1-0.9-0.5c-0.3-0.4-0.8-0.9-0.8-1.5s0.1-1,0.2-1.8c0.2-0.8,0.7-1.2,0.7-1.2
		L218.9,13.5L218.9,13.5z"/>
	<path class="st2" d="M218.5,16.4l0.1-2.4"/>
	<path class="st2" d="M213.2,11.3c0,0,0.5,1.8,0,3.3c-0.4,1.5-1.2,2.8-1.2,2.8s3.1-2.6,3-3.2s-0.1-1.8-0.1-1.8"/>
</g>
<g>
	<g>
		<path d="M162,81.7c4.2,0.8,7.2,2.8,7.2,6.6c0,2.5-1.6,4.8-3.8,6.1c-2,1.1-4.6,1.7-7.6,1.7h-11.2v-1.5c3.1-0.3,3.4-0.5,3.4-3.9
			V75.4c0-3.4-0.5-3.7-3.4-3.9V70h12.2c3,0,5,0.4,6.6,1.4c1.5,1,2.4,2.5,2.4,4.4C167.7,79.1,164.6,81.1,162,81.7z M156.9,81.1
			c3.8,0,5.2-1.6,5.2-4.6c0-3.5-2.3-4.8-4.5-4.8c-1,0-1.6,0.1-1.9,0.3c-0.4,0.3-0.4,0.6-0.4,1.5v7.6H156.9z M155.4,90.5
			c0,2.9,1.3,3.8,3.5,3.7c2.2,0,4.4-2,4.4-5.7c0-3.9-2-5.7-6.4-5.7h-1.4V90.5z"/>
		<path d="M172.4,96v-1.5c3-0.3,3.4-0.5,3.4-3.9V75.4c0-3.4-0.4-3.7-3.4-3.9V70h12.4v1.5c-3,0.3-3.4,0.6-3.4,3.9v15.2
			c0,3.3,0.4,3.6,3.4,3.9V96H172.4z"/>
		<path d="M209.9,89.2c-0.2,1.1-1.3,5.7-1.7,6.8h-20.8v-1.4c3.6-0.4,3.9-0.6,3.9-3.9V75.3c0-3.4-0.5-3.6-3.2-3.9V70h13
			c4.2,0,5.6,0,6.2-0.1c0,0.7,0.2,4,0.4,6.5l-1.6,0.2c-0.4-1.4-1-3-1.7-3.7c-0.7-0.8-1.2-1-3.3-1h-2.6c-1.5,0-1.7,0.1-1.7,1.4v8.4
			h3.9c2.2,0,2.6-0.6,3.2-3.4h1.6v8.9H204c-0.6-3-1-3.4-3.3-3.4h-3.9v6.9c0,2.8,0.1,3.6,2.6,3.6h2.8c2.2,0,2.8-0.3,3.7-1.4
			c1-1.2,1.8-2.6,2.4-4L209.9,89.2z"/>
		<path d="M237.4,96.2c-0.2,0-0.7,0-1.2,0c-5.1-0.2-6.6-1.3-7.8-3c-1.6-2.2-2.8-4.6-4.1-7c-0.6-1.1-1.2-1.3-2.4-1.3l-0.8,0v5.8
			c0,3.2,0.4,3.5,3.4,3.9V96h-12.2v-1.5c3-0.3,3.4-0.6,3.4-3.9V75.3c0-3.2-0.4-3.6-3.4-3.8V70h11.6c3.6,0,5.6,0.4,7.2,1.5
			c1.6,1.1,2.7,2.8,2.7,5.3c0,3.6-2.4,5.4-5,6.5c0.6,1.2,2.2,3.8,3.4,5.6c1.4,2.2,2.3,3.3,3,4.2c0.9,1,1.4,1.4,2.5,1.8L237.4,96.2z
			 M222.2,83.1c1.7,0,3-0.3,3.9-1c1.3-1.1,1.9-2.6,1.9-4.7c0-4.2-2.4-5.8-4.7-5.8c-1.1,0-1.6,0.2-1.8,0.4c-0.3,0.2-0.4,0.7-0.4,1.5
			v9.6H222.2z"/>
		<path d="M252.4,69.4c7.4,0,13.4,5.4,13.4,13.3c0,8.5-6.1,13.9-13.6,13.9c-8,0-13.8-5.8-13.8-13.6
			C238.4,76.2,243.3,69.4,252.4,69.4z M251.8,71.2c-4.1,0-7.1,4-7.1,11.1c0,6.8,2.7,12.6,8.1,12.6c3.8,0,6.8-3.7,6.8-11
			C259.6,75.9,256.5,71.2,251.8,71.2z"/>
	</g>
</g>
</svg>
